<svg aria-hidden="true" style="position: absolute; width: 0; height: 0; overflow: hidden;" version="1.1" xmlns="http://www.w3.org/2000/svg" xmlns:xlink="http://www.w3.org/1999/xlink">
<defs>
<symbol id="icon-minus" viewBox="0 0 32 32">
<path d="M6.667 14.667h18.667v2.667h-18.667v-2.667z"></path>
</symbol>
<symbol id="icon-plus" viewBox="0 0 32 32">
<path d="M25.333 14.667h-8v-8h-2.667v8h-8v2.667h8v8h2.667v-8h8v-2.667z"></path>
</symbol>
<symbol id="icon-x" viewBox="0 0 32 32">
<path d="M21.589 8.459l-5.657 5.656-5.656-5.656-1.885 1.885 5.656 5.656-5.656 5.656 1.885 1.885 5.656-5.656 5.657 5.656 1.885-1.885-5.656-5.656 5.656-5.656-1.885-1.885z"></path>
</symbol>
<symbol id="icon-star" viewBox="0 0 32 32">
<path d="M8.688 19.097l-1.987 8.603c-0.062 0.261-0.043 0.533 0.053 0.783s0.265 0.465 0.485 0.617c0.22 0.152 0.481 0.235 0.749 0.236s0.53-0.078 0.752-0.227l7.26-4.84 7.26 4.84c0.227 0.151 0.495 0.228 0.768 0.222s0.537-0.095 0.757-0.256c0.22-0.161 0.386-0.385 0.475-0.642s0.097-0.536 0.023-0.799l-2.439-8.533 6.048-5.443c0.194-0.174 0.332-0.402 0.398-0.654s0.056-0.518-0.027-0.765-0.238-0.464-0.444-0.624c-0.206-0.16-0.454-0.256-0.714-0.277l-7.601-0.605-3.289-7.281c-0.105-0.234-0.275-0.434-0.491-0.573s-0.467-0.214-0.724-0.214c-0.257 0-0.508 0.074-0.724 0.214s-0.386 0.339-0.491 0.573l-3.289 7.281-7.601 0.604c-0.255 0.020-0.5 0.114-0.703 0.269s-0.358 0.366-0.445 0.607c-0.087 0.241-0.103 0.502-0.046 0.752s0.185 0.478 0.369 0.656l5.619 5.476zM12.492 13.329c0.238-0.019 0.467-0.101 0.662-0.239s0.35-0.325 0.448-0.543l2.399-5.308 2.399 5.308c0.098 0.218 0.252 0.405 0.448 0.543s0.424 0.22 0.662 0.239l5.296 0.42-4.361 3.925c-0.379 0.341-0.529 0.867-0.391 1.357l1.671 5.847-4.981-3.321c-0.219-0.147-0.476-0.225-0.739-0.225s-0.521 0.078-0.739 0.225l-5.205 3.471 1.4-6.061c0.051-0.223 0.044-0.455-0.020-0.675s-0.184-0.419-0.348-0.579l-4.051-3.949 5.453-0.435z"></path>
</symbol>
<symbol id="icon-arrow-back" viewBox="0 0 32 32">
<path d="M28 14.667h-19.448l7.057-7.057-1.885-1.885-10.276 10.276 10.276 10.276 1.885-1.885-7.057-7.057h19.448v-2.667z"></path>
</symbol>
<symbol id="icon-chevron-up" viewBox="0 0 32 32">
<path d="M8.391 19.057l1.885 1.885 5.724-5.724 5.724 5.724 1.885-1.885-7.609-7.609-7.609 7.609z"></path>
</symbol>
<symbol id="icon-chevron-down" viewBox="0 0 32 32">
<path d="M21.724 11.057l-5.724 5.724-5.724-5.724-1.885 1.885 7.609 7.609 7.609-7.609-1.885-1.885z"></path>
</symbol>
<symbol id="icon-chevron-left" viewBox="0 0 32 32">
<path d="M17.724 8.391l-7.609 7.609 7.609 7.609 1.885-1.885-5.724-5.724 5.724-5.724-1.885-1.885z"></path>
</symbol>
<symbol id="icon-chevron-right" viewBox="0 0 32 32">
<path d="M12.943 22.599l7.609-7.609-7.609-7.609-1.885 1.885 5.724 5.724-5.724 5.724 1.885 1.885z"></path>
</symbol>
<symbol id="icon-up-arrow-alt" viewBox="0 0 32 32">
<path d="M14.667 11.219v12.781h2.667v-12.781l5.724 5.724 1.885-1.885-8.943-8.943-8.943 8.943 1.885 1.885 5.724-5.724z"></path>
</symbol>
<symbol id="icon-down-arrow-alt" viewBox="0 0 32 32">
<path d="M24.943 16.943l-1.885-1.885-5.724 5.724v-12.781h-2.667v12.781l-5.724-5.724-1.885 1.885 8.943 8.943 8.943-8.943z"></path>
</symbol>
<symbol id="icon-left-arrow-alt" viewBox="0 0 32 32">
<path d="M16.943 23.057l-5.724-5.724h12.781v-2.667h-12.781l5.724-5.724-1.885-1.885-8.943 8.943 8.943 8.943 1.885-1.885z"></path>
</symbol>
<symbol id="icon-right-arrow-alt" viewBox="0 0 32 32">
<path d="M15.057 23.057l1.885 1.885 8.943-8.943-8.943-8.943-1.885 1.885 5.724 5.724h-12.781v2.667h12.781l-5.724 5.724z"></path>
</symbol>
<symbol id="icon-menu" viewBox="0 0 32 32">
<path d="M5.333 8h21.333v2.667h-21.333v-2.667zM5.333 14.667h21.333v2.667h-21.333v-2.667zM5.333 21.333h21.333v2.667h-21.333v-2.667z"></path>
</symbol>
<symbol id="icon-Youtube" viewBox="0 0 32 32">
<path d="M28.791 9.604c-0.152-0.563-0.449-1.077-0.861-1.49s-0.925-0.711-1.489-0.864c-2.088-0.573-10.441-0.583-10.441-0.583s-8.352-0.009-10.441 0.539c-0.563 0.16-1.075 0.462-1.487 0.878s-0.711 0.929-0.867 1.493c-0.551 2.088-0.556 6.419-0.556 6.419s-0.005 4.352 0.541 6.419c0.307 1.143 1.207 2.045 2.351 2.353 2.109 0.573 10.44 0.583 10.44 0.583s8.353 0.009 10.441-0.537c0.563-0.153 1.077-0.45 1.49-0.862s0.712-0.925 0.866-1.488c0.552-2.087 0.556-6.416 0.556-6.416s0.027-4.353-0.543-6.441zM13.328 20.007l0.007-8 6.943 4.007-6.949 3.993z"></path>
</symbol>
<symbol id="icon-Instagram" viewBox="0 0 32 32">
<path d="M15.998 6.161c3.206 0 3.585 0.014 4.846 0.071 1.172 0.052 1.804 0.248 2.226 0.412 0.558 0.216 0.961 0.478 1.378 0.895 0.422 0.422 0.679 0.82 0.9 1.378 0.164 0.422 0.361 1.059 0.412 2.226 0.056 1.266 0.071 1.645 0.071 4.847s-0.014 3.585-0.071 4.847c-0.052 1.172-0.248 1.804-0.412 2.227-0.216 0.558-0.478 0.961-0.895 1.377-0.422 0.422-0.82 0.679-1.378 0.9-0.422 0.164-1.060 0.361-2.226 0.412-1.266 0.056-1.645 0.071-4.847 0.071s-3.585-0.014-4.847-0.071c-1.172-0.052-1.804-0.248-2.226-0.412-0.558-0.216-0.961-0.478-1.378-0.895-0.422-0.422-0.679-0.82-0.9-1.378-0.164-0.422-0.361-1.060-0.412-2.226-0.056-1.266-0.071-1.645-0.071-4.847s0.014-3.585 0.071-4.847c0.052-1.172 0.248-1.804 0.412-2.226 0.216-0.558 0.478-0.961 0.895-1.378 0.422-0.422 0.82-0.679 1.378-0.9 0.422-0.164 1.059-0.361 2.226-0.412 1.261-0.056 1.641-0.071 4.847-0.071h0.001zM15.998 4.001c-3.258 0-3.665 0.014-4.945 0.071-1.275 0.056-2.151 0.262-2.91 0.558-0.792 0.309-1.462 0.717-2.127 1.387-0.67 0.666-1.078 1.336-1.387 2.123-0.295 0.764-0.502 1.636-0.558 2.91-0.056 1.285-0.071 1.692-0.071 4.949s0.014 3.665 0.071 4.945c0.056 1.275 0.262 2.151 0.558 2.91 0.31 0.792 0.717 1.462 1.387 2.127 0.665 0.665 1.336 1.078 2.123 1.383 0.764 0.295 1.636 0.502 2.91 0.558 1.279 0.056 1.687 0.071 4.945 0.071s3.666-0.014 4.945-0.071c1.275-0.056 2.151-0.262 2.91-0.558 0.787-0.305 1.458-0.717 2.123-1.383s1.078-1.336 1.383-2.123c0.295-0.764 0.502-1.635 0.558-2.91 0.056-1.279 0.071-1.687 0.071-4.945s-0.014-3.665-0.071-4.945c-0.056-1.275-0.262-2.151-0.558-2.91-0.295-0.797-0.703-1.467-1.373-2.133-0.665-0.665-1.336-1.078-2.123-1.383-0.764-0.295-1.635-0.502-2.91-0.558-1.284-0.061-1.692-0.075-4.949-0.075l-0.001 0.001z"></path>
<path d="M15.998 9.836c-3.402 0-6.163 2.76-6.163 6.163s2.76 6.163 6.163 6.163c3.403 0 6.163-2.76 6.163-6.163s-2.76-6.163-6.163-6.163zM15.998 19.997c-2.208 0-3.998-1.79-3.998-3.998s1.79-3.998 3.998-3.998c2.208 0 3.998 1.79 3.998 3.998s-1.79 3.998-3.998 3.998z"></path>
<path d="M23.843 9.592c0 0.795-0.644 1.439-1.439 1.439s-1.439-0.644-1.439-1.439 0.644-1.439 1.439-1.439c0.795 0 1.439 0.644 1.439 1.439z"></path>
</symbol>
<symbol id="icon-Facebook" viewBox="0 0 32 32">
<path d="M29.333 16.405c0-7.409-5.969-13.415-13.333-13.415s-13.333 6.006-13.333 13.415c0 6.696 4.876 12.245 11.25 13.252v-9.374h-3.385v-3.878h3.385v-2.955c0-3.362 1.991-5.219 5.036-5.219 1.459 0 2.985 0.262 2.985 0.262v3.301h-1.681c-1.656 0-2.173 1.034-2.173 2.095v2.516h3.698l-0.591 3.878h-3.107v9.374c6.374-1.006 11.25-6.556 11.25-13.252z"></path>
</symbol>
<symbol id="icon-mebleriya" viewBox="0 0 138 32">
<path d="M13.878 0.53c8.419-0.786 15.878 5.407 16.655 13.827s-5.423 15.872-13.844 16.641c-8.408 0.767-15.848-5.422-16.624-13.829s5.406-15.854 13.812-16.638zM16.931 29.378c7.516-0.903 12.875-7.729 11.968-15.244s-7.737-12.87-15.251-11.959c-7.508 0.911-12.857 7.733-11.951 15.241 0.906 7.509 7.725 12.862 15.234 11.962z"></path>
<path d="M21.288 7.801l1.761-0.012c0.034 5.082 0.037 10.165 0.008 15.248l-1.821 0.023-0.003-9.55-0.008-2.615c-1.017 1.93-2.172 3.786-3.272 5.669-0.697 1.194-1.345 2.563-2.208 3.637-0.206 0.075-0.429 0.081-0.644 0.032-0.070-0.016-0.217-0.071-0.27-0.114-0.465-0.371-4.842-8.060-5.541-9.226 0.179 1.383 0.067 2.891 0.066 4.287l-0.005 7.842-1.862 0.007c0.058-5.074-0.033-10.152 0.015-15.227l2.028 0.011c0.902 1.612 1.869 3.19 2.804 4.783 0.994 1.693 1.961 3.406 3.017 5.062 1.074-1.961 2.275-3.862 3.429-5.778 0.818-1.357 1.591-2.786 2.507-4.078z"></path>
<path d="M114.522 11.423c0.359-0.024 0.728-0.034 1.088-0.027 1.343 0.024 2.714 0.742 3.633 1.693 1.145 1.186 1.677 2.84 1.639 4.471-0.038 1.66-0.661 3.238-1.883 4.377-1.083 1.009-2.471 1.549-3.955 1.493-1.699-0.064-2.826-0.78-3.966-1.996-0.044 0.696-0.031 1.401-0.038 2.099 0.007 1.386 0.006 2.772-0.006 4.159-0.646 0.064-1.298 0.058-1.943-0.018 0.105-2.146 0.012-4.344 0.013-6.495 0-3.201 0.051-6.41-0.021-9.61l1.923-0.008c-0.038 0.714-0.029 1.435-0.039 2.151 1.042-1.3 1.91-1.927 3.555-2.289zM115.355 21.713c1.195-0.224 2.121-0.712 2.823-1.744 0.686-1.027 0.933-2.286 0.683-3.495-0.214-1.078-0.852-2.096-1.791-2.685-0.739-0.464-1.538-0.591-2.391-0.567-1.185 0.224-2.145 0.646-2.855 1.679-0.669 0.973-0.957 2.358-0.731 3.515 0.214 1.111 0.873 2.086 1.824 2.698 0.759 0.477 1.559 0.614 2.439 0.599z"></path>
<path d="M78.645 6.6c0.313 0.322 0.411 1.172 0.597 1.627-2.018 0.847-4.943 0.673-6.565 2.222-0.97 0.927-1.202 2.209-1.222 3.487 0.868-1.072 1.82-1.941 3.243-2.179 1.438-0.241 2.963 0.038 4.142 0.916 1.267 0.943 1.973 2.311 2.185 3.86 0.243 1.78-0.2 3.459-1.293 4.881-0.791 0.878-1.712 1.527-2.871 1.811-1.468 0.36-3.143 0.173-4.437-0.629-1.475-0.916-2.324-2.428-2.693-4.092-0.55-2.486-0.442-6.2 0.991-8.407 1.263-1.946 3.171-2.332 5.291-2.836 0.88-0.209 1.748-0.467 2.631-0.662zM75.291 21.724c1.249-0.185 2.179-0.484 2.955-1.558 0.762-1.052 1.008-2.381 0.772-3.646-0.191-1.021-0.728-1.954-1.604-2.532-0.537-0.355-1.159-0.558-1.802-0.589-1.216 0.136-2.216 0.388-3.025 1.39-0.759 0.941-1.084 2.213-0.916 3.406 0.153 1.088 0.748 2.135 1.641 2.784 0.605 0.439 1.253 0.631 1.98 0.744z"></path>
<path d="M51.308 7.375c0.71-0.071 1.449-0.037 2.164-0.042-0.096 5.23 0.019 10.475-0.011 15.707l-1.883-0.019 0.003-9.251c-0.005-1.060-0.027-2.122 0.038-3.181-1.736 3.206-3.302 6.552-5.203 9.66l-1.224-0.007c-1.872-3.070-3.431-6.378-5.162-9.532 0.068 1.447 0.022 2.915 0.023 4.364l0.004 7.966c-0.628-0.016-1.253 0.025-1.882-0.005l0.001-9.529c0.001-2.048-0.039-4.11 0.073-6.155l2.095 0.001c0.596 1.021 1.102 2.116 1.643 3.168 1.255 2.44 2.498 4.907 3.852 7.294 1.99-3.375 3.566-7.010 5.469-10.438z"></path>
<path d="M60.994 11.427c0.287-0.015 0.575-0.026 0.863-0.033 1.508-0.025 3.010 0.387 4.097 1.479 1.454 1.462 1.599 3.304 1.599 5.25-3.139 0.040-6.281-0.002-9.421 0.012 0.097 0.518 0.194 1.014 0.441 1.487 0.491 0.946 1.342 1.654 2.362 1.963 1.22 0.37 2.448 0.153 3.545-0.452 0.368-0.25 0.705-0.543 1.048-0.826 0.493 0.281 0.991 0.516 1.512 0.741-0.775 1.045-1.773 1.807-3.037 2.153-1.618 0.443-3.59 0.269-5.047-0.588-1.278-0.754-2.195-1.994-2.54-3.436-0.431-1.735-0.19-3.632 0.751-5.157 0.907-1.471 2.18-2.197 3.827-2.591zM58.153 16.657c1.555-0.012 3.109-0.017 4.664-0.013l2.906 0.002c-0.283-1.193-0.567-2.298-1.677-2.996-0.812-0.511-1.796-0.589-2.731-0.511-1.009 0.233-1.86 0.692-2.436 1.582-0.39 0.602-0.563 1.25-0.726 1.937z"></path>
<path d="M100.037 11.423c0.282-0.014 0.564-0.023 0.846-0.028 1.504-0.016 3.007 0.43 4.080 1.527 1.412 1.444 1.542 3.287 1.536 5.194-3.125 0.047-6.258 0.010-9.385 0.017 0.042 0.57 0.142 1.061 0.408 1.574 0.493 0.95 1.31 1.578 2.33 1.877 1.365 0.401 2.607 0.105 3.813-0.564 0.295-0.203 0.556-0.451 0.824-0.688 0.496 0.267 0.998 0.483 1.52 0.691-0.817 1.074-1.834 1.853-3.155 2.188-1.642 0.416-3.527 0.257-4.992-0.628-1.301-0.785-2.193-2.080-2.535-3.554-0.39-1.684-0.118-3.62 0.823-5.080s2.228-2.166 3.887-2.525zM97.097 16.653c1.488-0.004 2.978-0.025 4.466-0.009l3.154-0.002c-0.327-1.226-0.67-2.421-1.856-3.095-0.735-0.418-1.63-0.489-2.459-0.405-0.984 0.163-1.816 0.533-2.428 1.356-0.484 0.652-0.691 1.38-0.877 2.156z"></path>
<path d="M132.498 11.588c1.903-0.089 3.835-0.025 5.742-0.018-0.097 3.812-0.010 7.65-0.012 11.465l-1.962-0.021-0.001-3.917c-0.937-0.006-2.171-0.189-3.064 0.024-0.279 0.066-0.329 0.207-0.485 0.424-0.662 1.174-1.398 2.307-2.062 3.482-0.741 0.016-1.484 0.019-2.225 0.006 0.726-1.362 1.711-3.096 2.671-4.276-0.115-0.056-0.228-0.115-0.339-0.175-0.837-0.462-1.478-1.206-1.723-2.139-0.256-0.972-0.116-2.082 0.403-2.945 0.701-1.165 1.8-1.613 3.057-1.909zM134.509 17.453c0.579-0.005 1.17 0.013 1.747-0.029-0.008-1.356-0.004-2.711 0.010-4.067-1.149-0.004-2.316-0.035-3.465 0.028-0.724 0.227-1.29 0.472-1.682 1.171-0.259 0.464-0.329 1.077-0.154 1.581 0.169 0.488 0.562 0.831 1.023 1.040 0.78 0.352 1.686 0.283 2.52 0.276z"></path>
<path d="M85.008 11.693c2.484-0.090 4.989-0.031 7.476-0.036l-0.012 11.376c-0.619-0.009-1.241-0.035-1.856 0.049l-0.009-9.636-1.054 0.043c-0.941-0.046-1.902 0.016-2.845 0.038-0.026 2.293-0.035 7.047-1.641 8.743-0.801 0.846-1.706 0.933-2.8 0.942-0.008-0.598-0.040-1.189-0.083-1.785 0.286-0.026 0.588-0.046 0.866-0.116 1.729-0.436 1.759-6.149 1.802-7.589 0.017-0.561-0.107-1.571 0.155-2.027z"></path>
<path d="M125.296 11.61l0.254-0.015c0.030 0.041 0.074 0.076 0.092 0.124 0.085 0.224-0.002 10.161-0.002 11.31l-1.666 0.012-0.123-0.025c-0.267-0.482 0.001-9.951-0.083-11.383 0.509 0.006 1.018-0.011 1.526-0.023z"></path>
<path d="M123.735 7.319l1.916-0.006c-0.020 0.68-0.005 1.361 0.005 2.041l-1.973 0.015c0.029-0.683 0.046-1.366 0.052-2.050z"></path>
</symbol>
<symbol id="icon-wink" viewBox="0 0 32 32">
<path d="M16 32c8.837 0 16-7.163 16-16s-7.163-16-16-16-16 7.163-16 16 7.163 16 16 16zM16 3c7.18 0 13 5.82 13 13s-5.82 13-13 13-13-5.82-13-13 5.82-13 13-13zM16.961 22.22c4.383-0.866 7.785-2.861 9.014-5.519-0.677 5.249-5.047 9.299-10.339 9.299-3.726 0-6.996-2.009-8.84-5.030 2.2 1.721 6.079 2.056 10.165 1.249zM20 11c0-1.657 0.895-3 2-3s2 1.343 2 3c0 1.657-0.895 3-2 3s-2-1.343-2-3zM11 11.609c-1.306 0-2.417 0.489-2.829 1.172-0.111-0.183-0.171-1.005-0.171-1.211 0-0.971 1.343-1.758 3-1.758s3 0.787 3 1.758c0 0.206-0.061 1.028-0.171 1.211-0.412-0.683-1.522-1.172-2.829-1.172z"></path>
</symbol>
</defs>
</svg>
